<svg width="16" height="21" viewBox="0 0 16 21" fill="none" xmlns="http://www.w3.org/2000/svg">
<g clip-path="url(#clip0_17_26)">
<path d="M2.75069 20.9998H13.2529C14.0193 20.9998 14.6442 20.3804 14.6442 19.6186V6.33875H1.35953V19.6186C1.35953 20.3794 1.98329 20.9998 2.75069 20.9998ZM11.117 9.08992C11.117 8.86434 11.3019 8.68079 11.5291 8.68079C11.7564 8.68079 11.9412 8.86434 11.9412 9.08992V18.2506C11.9412 18.4762 11.7564 18.6598 11.5291 18.6598C11.3019 18.6598 11.117 18.4762 11.117 18.2506V9.08992ZM7.58973 9.08992C7.58973 8.86434 7.77462 8.68079 8.00185 8.68079C8.22908 8.68079 8.41396 8.86434 8.41396 9.08992V18.2506C8.41396 18.4762 8.22908 18.6598 8.00185 18.6598C7.77462 18.6598 7.58973 18.4762 7.58973 18.2506V9.08992ZM4.06245 9.08992C4.06245 8.86434 4.24733 8.68079 4.47457 8.68079C4.7018 8.68079 4.88668 8.86434 4.88668 9.08992V18.2506C4.88668 18.4762 4.7018 18.6598 4.47457 18.6598C4.24733 18.6598 4.06245 18.4762 4.06245 18.2506V9.08992Z" fill="#FF0000"/>
<path d="M0 4.24172V4.86413C0 5.22916 0.298497 5.52345 0.664128 5.52345H15.3338C15.7015 5.52345 16 5.22916 16 4.86413V4.24172C16 3.87669 15.7015 3.5824 15.3338 3.5824H0.664128C0.299528 3.5824 0 3.87669 0 4.24172Z" fill="#FF0000"/>
<path d="M4.27927 1.21508V2.76136H5.10454V1.21508C5.10454 0.994626 5.28426 0.816216 5.50631 0.816216H10.5032C10.7253 0.816216 10.905 0.994634 10.905 1.21508V2.76136H11.7302V1.21508C11.7302 0.543453 11.1808 0 10.5063 0H5.50941C4.83288 0 4.28546 0.5455 4.28546 1.21508H4.27927Z" fill="#FF0000"/>
</g>
<defs>
<clipPath id="clip0_17_26">
<rect width="16" height="21" fill="white"/>
</clipPath>
</defs>
</svg>